<?xml version="1.0" encoding="UTF-8"?>
<svg id="Layer_1" data-name="Layer 1" xmlns="http://www.w3.org/2000/svg" viewBox="0 0 554.39 61.49">
  <path d="M1.72,14.3c-.05-.42-.14-.79-.27-1.13-.13-.34-.27-.71-.43-1.13-.26-.62-.5-1.3-.7-2.03-.21-.73-.31-1.59-.31-2.58,.1-.52,.23-.9,.39-1.13s.31-.43,.47-.59l.31-1.41h1.17c.42,.05,.85,.08,1.29,.08h1.29c1.98,0,4.01-.08,6.09-.23,2.08-.16,4.22-.34,6.41-.55,2.4-.31,4.97-.55,7.73-.7,.26-.57,.43-.94,.51-1.09s.17-.34,.27-.55l.86-.47c1.2-.05,2.03,.09,2.5,.43,.47,.34,.83,.66,1.09,.98,1.35-.1,2.73-.25,4.14-.43,1.41-.18,2.86-.38,4.38-.59,2.08-.26,4.19-.52,6.33-.78C47.37,.13,49.45,0,51.48,0c.88,0,1.72,.03,2.5,.08,.78,.05,1.54,.13,2.27,.23l.94,.7c.21,.37,.47,.7,.78,1.02s.68,.62,1.09,.94c.78,.62,1.55,1.41,2.3,2.34,.75,.94,1.03,2.32,.82,4.14l-.39,.78c-.21,.21-.47,.42-.78,.62l-.78,1.02h-.86c-.52,0-.91,.04-1.17,.12-.26,.08-.57,.2-.94,.35-.21,.11-.44,.2-.7,.27-.26,.08-.55,.17-.86,.27-.57-.05-1.02-.08-1.33-.08h-1.09c-1.56,0-3.26,.11-5.08,.31-1.82,.21-3.59,.44-5.31,.7-1.25,.16-2.45,.3-3.59,.43-1.15,.13-2.19,.25-3.12,.35-.52,1.36-.99,2.55-1.41,3.59-.42,1.04-.86,2.08-1.33,3.12-.47,1.04-.91,2.1-1.33,3.16-.42,1.07-.81,2.25-1.17,3.55-.62,.94-1.15,1.84-1.56,2.7-.42,.86-.76,1.84-1.02,2.93-.78,.89-1.34,1.85-1.68,2.89-.34,1.04-.64,1.93-.9,2.66l-.31,1.17c-.37,.37-.59,.65-.66,.86-.08,.21-.22,.44-.43,.7-.16,.68-.37,1.33-.62,1.95-.1,.26-.21,.54-.31,.82-.1,.29-.13,.51-.08,.66-.1,.57-.26,1.02-.47,1.33,0,.31-.03,.62-.08,.94-.05,.31-.1,.62-.16,.94-.1,.37-.18,.69-.23,.98-.05,.29-.03,.56,.08,.82,.16,.21,.31,.42,.47,.62,.16,.21,.29,.47,.39,.78,.1,.11,.23,.18,.39,.23,.16,.05,.29,.13,.39,.23,.42,.37,.81,.57,1.17,.62l.78,.94c.31,1.88,.03,3.33-.86,4.38-.94,1.2-2.5,1.8-4.69,1.8l-1.09-.08c-.37-.37-.57-.6-.62-.7-.47-.21-.86-.38-1.17-.51-.31-.13-.6-.38-.86-.74-.1-.1-.23-.17-.39-.2-.16-.03-.29-.09-.39-.2-.52-.16-.94-.34-1.25-.55l-.86-.47c.05-.52,.08-.88,.08-1.09-.42-.57-.74-1.2-.98-1.88-.23-.68-.43-1.38-.59-2.11-.16-.57-.3-1.09-.43-1.56-.13-.47-.33-.88-.59-1.25-.1-3.64,.23-6.71,1.02-9.18,.78-2.47,1.64-4.88,2.58-7.23,.52-1.25,1.02-2.53,1.48-3.83,.47-1.3,.88-2.63,1.25-3.98l.86-.86c.36-.31,.6-.49,.7-.55,0-.68,.13-1.34,.39-1.99,.26-.65,.55-1.31,.86-1.99,.21-.42,.4-.83,.59-1.25,.18-.42,.3-.78,.35-1.09-.37,0-.69,.01-.98,.04-.29,.03-.59,.07-.9,.12-.68,.16-1.33,.23-1.95,.23-.47,0-.81-.03-1.02-.08-.42,.21-.81,.33-1.17,.35-.37,.03-.73,.04-1.09,.04h-1.88c-.62,0-1.12,.08-1.48,.23h-3.98c-.42,0-.89-.04-1.41-.12-.52-.08-1.07-.27-1.64-.59l-.55-.62c-.31-.57-.6-.88-.86-.94l-.86-.23v-.86Z"/>
  <path d="M94.19,14.38c.05,.37,.06,.64,.04,.82-.03,.18-.05,.35-.08,.51-.03,.16-.04,.33-.04,.51s.05,.46,.16,.82c-1.09,1.77-2.36,2.98-3.79,3.63-1.43,.65-2.98,1.12-4.65,1.41-1.67,.29-3.37,.59-5.12,.9-1.75,.31-3.48,.99-5.2,2.03-.68-.26-1.29-.26-1.84,0-.55,.26-1.34,.34-2.38,.23-.31,.31-.7,.54-1.17,.66-.47,.13-.94,.27-1.41,.43,.21,.47,.3,.95,.27,1.45-.03,.5,.04,.9,.2,1.21,1.82,.16,3.84,.13,6.05-.08,2.21-.21,4.39-.34,6.52-.39,.05,.26,.03,.43-.08,.51-.1,.08-.13,.22-.08,.43,.36,.26,.73,.59,1.09,.98,.36,.39,.73,.77,1.09,1.13,.36,.37,.74,.66,1.13,.9s.85,.33,1.37,.27c.21,.42,.35,.87,.43,1.37,.08,.5,.01,1-.2,1.52-.83,.57-1.67,1.16-2.5,1.76-.83,.6-1.71,1.13-2.62,1.6-.91,.47-1.88,.85-2.89,1.13-1.02,.29-2.15,.4-3.4,.35h-.59c-.13,0-.3-.08-.51-.23-.42,.26-1,.34-1.76,.23-.76-.1-1.34-.03-1.76,.23-.57-.26-1.26-.38-2.07-.35-.81,.03-1.52-.06-2.15-.27-.83,1.09-1.59,2.27-2.27,3.52-.68,1.25-1.28,2.58-1.8,3.98,1.77,.26,3.24,.37,4.41,.31,1.17-.05,2.28-.14,3.32-.27,1.04-.13,2.11-.26,3.2-.39,1.09-.13,2.47-.17,4.14-.12,1.04-.57,2.28-.95,3.71-1.13,1.43-.18,2.75-.48,3.95-.9,.42,.16,.78,.43,1.09,.82s.61,.76,.9,1.09c.29,.34,.59,.64,.9,.9,.31,.26,.7,.37,1.17,.31,.21,.21,.35,.46,.43,.74,.08,.29,.14,.56,.2,.82,.05,.26,.14,.48,.27,.66,.13,.18,.35,.25,.66,.2-.78,1.72-1.68,3.04-2.7,3.95-1.02,.91-2.18,1.6-3.48,2.07-1.3,.47-2.75,.83-4.34,1.09-1.59,.26-3.35,.57-5.27,.94-.47,.1-.86,.09-1.17-.04-.31-.13-.68-.2-1.09-.2-1.2,.26-2.63,.49-4.3,.7-1.67,.21-3.36,.29-5.08,.23-1.72-.05-3.36-.27-4.92-.66s-2.84-1.08-3.83-2.07c-.42-.36-.69-.79-.82-1.29-.13-.49-.48-.87-1.05-1.13-.05-.68-.16-1.43-.31-2.27-.16-.83-.31-1.71-.47-2.62-.16-.91-.27-1.81-.35-2.7-.08-.88-.04-1.69,.12-2.42,.16-.78,.48-1.48,.98-2.11,.49-.62,.66-1.3,.51-2.03,.26-.05,.42-.2,.47-.43,.05-.23,.26-.32,.62-.27,.31-.94,.65-1.82,1.02-2.66,.36-.83,.74-1.64,1.13-2.42s.78-1.57,1.17-2.38c.39-.81,.77-1.71,1.13-2.7-.73-.68-1.26-1.42-1.6-2.23-.34-.81-.59-1.61-.74-2.42-.16-.81-.29-1.64-.39-2.5-.1-.86-.29-1.73-.55-2.62,.52-.78,1.16-1.42,1.91-1.91,.75-.49,1.57-.9,2.46-1.21,.88-.31,1.85-.57,2.89-.78,1.04-.21,2.13-.44,3.28-.7,2.08-.68,3.95-1.2,5.59-1.56,1.64-.36,3.25-.66,4.84-.9,1.59-.23,3.24-.46,4.96-.66,1.72-.21,3.67-.52,5.86-.94,.47,.47,.91,.7,1.33,.7,.21-.47,.46-.61,.74-.43,.29,.18,.4,.04,.35-.43,.52,.89,1.18,1.63,1.99,2.23,.81,.6,1.71,1.11,2.7,1.52Z"/>
  <path d="M132.83,37.27c-.05,.26-.1,.48-.16,.66-.05,.18-.1,.35-.16,.51-.05,.16-.08,.35-.08,.59v.9c-1.56,2.76-3.53,5.08-5.9,6.95-2.37,1.88-4.97,3.53-7.81,4.96-2.84,1.43-5.79,2.73-8.87,3.91-3.07,1.17-6.07,2.44-8.98,3.79-1.25-.31-2.2-.83-2.85-1.56-.65-.73-1.15-1.57-1.48-2.54-.34-.96-.57-2.03-.7-3.2-.13-1.17-.25-2.38-.35-3.63,.16-.57,.38-1.05,.66-1.45,.29-.39,.43-.95,.43-1.68,.42-1.35,.83-2.68,1.25-3.98,.42-1.3,.68-2.63,.78-3.98,.16-.42,.44-.7,.86-.86,.26-2.5,.27-5.04,.04-7.62s-.66-4.99-1.29-7.23c.05-.52,.12-.9,.2-1.13s.06-.4-.04-.51c-.05-.42,.09-.62,.43-.62h1.05c0-.78-.14-1.56-.43-2.34-.29-.78-.56-1.67-.82-2.66,.36-.78,.6-1.55,.7-2.3,.1-.75,.34-1.42,.7-1.99,2.81,.89,5.51,1.95,8.09,3.2s5.12,2.16,7.62,2.73c1.88,1.36,3.8,2.7,5.78,4.02,1.98,1.33,3.78,2.79,5.39,4.38,1.61,1.59,2.97,3.4,4.06,5.43s1.72,4.45,1.88,7.27Zm-18.52,4.3c1.09-.42,2.17-.86,3.24-1.33,1.07-.47,2.06-1,2.97-1.6,.91-.6,1.73-1.29,2.46-2.07,.73-.78,1.33-1.72,1.8-2.81-.31-.62-.73-1.18-1.25-1.68-.52-.49-1.04-.96-1.56-1.41-.52-.44-1.03-.9-1.52-1.37-.5-.47-.9-1.04-1.21-1.72-.68-.1-1.28-.3-1.8-.59-.52-.29-1.03-.57-1.52-.86-.5-.29-1.02-.56-1.56-.82-.55-.26-1.19-.42-1.91-.47-1.15-.57-2.18-.99-3.09-1.25-.91-.26-1.6-.6-2.07-1.02-.37,0-.65,.08-.86,.23,.52,1.98,.91,3.84,1.17,5.59,.26,1.75,.4,3.49,.43,5.23,.03,1.75-.07,3.53-.27,5.35-.21,1.82-.5,3.8-.86,5.94,.52-.05,1-.17,1.45-.35,.44-.18,.88-.38,1.33-.59,.44-.21,.91-.4,1.41-.59,.49-.18,1.08-.3,1.76-.35,.16-.31,.38-.57,.66-.78,.29-.21,.56-.44,.82-.7Z"/>
  <path d="M168.7,23.13c.16-.78,.26-1.42,.31-1.91,.05-.49-.13-1.03-.55-1.6,.21-.83,.38-1.48,.51-1.95,.13-.47,.14-1.12,.04-1.95,.47-1.35,1.18-2.5,2.15-3.44,.96-.94,2.02-1.73,3.16-2.38,1.15-.65,2.34-1.2,3.59-1.64,1.25-.44,2.42-.82,3.52-1.13,0-.21-.1-.31-.31-.31s-.26-.13-.16-.39c2.81-.52,5.64-1.28,8.48-2.27,2.84-.99,5.74-1.88,8.71-2.66s6.02-1.26,9.14-1.45c3.12-.18,6.41,.22,9.84,1.21,.21,.62,.49,1.22,.86,1.8,.36,.57,.74,1.13,1.13,1.68s.74,1.08,1.05,1.6c.31,.52,.49,1.07,.55,1.64,.62,.57,1.13,1.19,1.52,1.84,.39,.65,.46,1.52,.2,2.62-.57,.42-1.17,.83-1.8,1.25-.62,.42-1.28,.81-1.95,1.17-2.34-.57-4.69-.78-7.03-.62s-4.45,.34-6.33,.55c-.57-.62-1.25-.92-2.03-.9-.78,.03-1.6,.16-2.46,.39s-1.71,.47-2.54,.7c-.83,.23-1.62,.3-2.34,.2-.57,.52-1.33,.87-2.27,1.05-.94,.18-1.93,.33-2.97,.43-.05,.26,0,.44,.16,.55,.16,.11,.18,.31,.08,.62,.36,.47,.86,.79,1.48,.98,.62,.18,1.26,.35,1.91,.51,.65,.16,1.24,.38,1.76,.66,.52,.29,.86,.74,1.02,1.37,.94,.05,1.74,.3,2.42,.74,.68,.44,1.25,.98,1.72,1.6s.81,1.29,1.02,1.99c.21,.7,.29,1.34,.23,1.91,.21,.52,.43,.73,.66,.62,.23-.1,.51,.03,.82,.39,.21,.78,.69,1.6,1.45,2.46,.75,.86,1.34,1.79,1.76,2.77,.1,1.56,.2,2.97,.27,4.22s-.14,2.47-.66,3.67c-.89,2.29-2.16,4.35-3.83,6.17-1.67,1.82-3.55,3.43-5.66,4.8-2.11,1.38-4.34,2.58-6.68,3.59s-4.66,1.86-6.95,2.54c-.21-.05-.46-.05-.74,0-.29,.05-.35-.11-.2-.47-.47,.42-1,.68-1.6,.78-.6,.1-1.25,.14-1.95,.12-.7-.03-1.41-.07-2.11-.12-.7-.05-1.39-.03-2.07,.08-.42-.42-.79-.83-1.13-1.25-.34-.42-.61-.91-.82-1.48-.26-.05-.38-.22-.35-.51,.03-.29-.09-.43-.35-.43,0-.21,.03-.36,.08-.47,.05-.1,.1-.21,.16-.31,.21-.16,.3-.27,.27-.35-.03-.08-.1-.16-.23-.23-.13-.08-.26-.17-.39-.27-.13-.1-.17-.23-.12-.39,.26-.47,.35-1.03,.27-1.68-.08-.65-.14-1.31-.2-1.99-.05-.68,0-1.31,.16-1.91,.16-.6,.6-1.11,1.33-1.52,2.13,.21,4.15,.11,6.05-.31,1.9-.42,3.7-.99,5.39-1.72,1.69-.73,3.31-1.52,4.84-2.38,1.54-.86,3.03-1.65,4.49-2.38,.16-.52,.4-.96,.74-1.33,.34-.36,.69-.71,1.05-1.05,.36-.34,.7-.7,1.02-1.09s.55-.87,.7-1.45c.05-.21,.05-.36,0-.47-.05-.1-.13-.2-.23-.27-.1-.08-.21-.17-.31-.27-.1-.1-.16-.26-.16-.47-.16-.05-.3-.1-.43-.16-.13-.05-.25-.08-.35-.08-1.35-.68-2.79-1.25-4.3-1.72-1.51-.47-2.79-.99-3.83-1.56-.62,.42-1.25,.52-1.88,.31-.62-.21-1.38-.42-2.27-.62-2.19-.1-4.26-.31-6.21-.62s-3.84-.86-5.66-1.64c-.1-.31-.23-.59-.39-.82s-.52-.3-1.09-.2c-.37-.52-.74-1-1.13-1.45-.39-.44-.74-.95-1.05-1.52Z"/>
  <path d="M248.28,58.52c-.83,.05-1.86,.03-3.09-.08-1.22-.1-2.36,.08-3.4,.55-2.76-.11-5.57-.44-8.44-1.02-2.87-.57-5.5-1.28-7.89-2.11-.52-.57-1.04-1.11-1.56-1.6-.52-.49-1.22-.85-2.11-1.05-1.25-.99-2.27-2.2-3.05-3.63-.78-1.43-1.41-2.96-1.88-4.57-.47-1.61-.78-3.27-.94-4.96-.16-1.69-.21-3.32-.16-4.88,.78-2.34,1.89-4.36,3.32-6.05,1.43-1.69,2.9-3.37,4.41-5.04,.68-.31,1.18-.64,1.52-.98,.34-.34,.7-.65,1.09-.94,.39-.29,.78-.57,1.17-.86,.39-.29,.74-.64,1.05-1.05,1.09-.26,2.04-.64,2.85-1.13,.81-.49,1.6-1.02,2.38-1.56s1.59-1.05,2.42-1.52c.83-.47,1.8-.83,2.89-1.09,.42-.47,.91-.85,1.48-1.13,.57-.29,1.16-.57,1.76-.86,.6-.29,1.17-.59,1.72-.9s.98-.73,1.29-1.25c.26,.42,.62,.56,1.09,.43,.47-.13,.91-.27,1.33-.43,.26-.05,.48,0,.66,.16,.18,.16,.35,.31,.51,.47s.3,.25,.43,.27c.13,.03,.25-.09,.35-.35,.26,0,.34,.13,.23,.39-.11,.26-.18,.44-.23,.55,.42-.05,.77,.04,1.05,.27,.29,.23,.74,.38,1.37,.43,.21,.26,.26,.46,.16,.59-.11,.13-.16,.35-.16,.66,1.56,.47,2.55,1.21,2.97,2.23,.42,1.02,.44,2.07,.08,3.16-.37,1.09-1.02,2.11-1.95,3.05s-1.95,1.56-3.05,1.88c-2.5,.68-4.86,1.42-7.07,2.23-2.21,.81-4.02,1.99-5.43,3.55-1.25,.37-2.36,.85-3.32,1.45-.96,.6-1.88,1.28-2.73,2.03-.86,.76-1.67,1.54-2.42,2.34-.76,.81-1.55,1.6-2.38,2.38,.05,.73-.07,1.29-.35,1.68-.29,.39-.56,.79-.82,1.21,.1,.78,.29,1.47,.55,2.07,.26,.6,.55,1.19,.86,1.76,3.44,1.04,7.1,1.69,10.98,1.95,3.88,.26,7.77,.42,11.68,.47,.36,.52,.79,1,1.29,1.45,.49,.44,.95,.91,1.37,1.41,.42,.5,.75,1.04,1.02,1.64,.26,.6,.31,1.34,.16,2.23-.73,.78-1.54,1.5-2.42,2.15-.89,.65-1.77,1.32-2.66,1.99Z"/>
  <path d="M267.31,61.41c-.26-.11-.55-.21-.86-.31l-.94-1.72-1.25,.94c-.37-.21-.65-.4-.86-.59-.21-.18-.44-.4-.7-.66-.57-.42-1.07-.85-1.48-1.29-.42-.44-.65-.87-.7-1.29l-.08-.78-.78-.16c-.26-.73-.47-1.26-.62-1.6-.16-.34-.42-.61-.78-.82-.31-2.6-.21-4.78,.31-6.52,.52-1.74,1.3-3.61,2.34-5.59,.62-.21,1.18-.49,1.68-.86,.49-.36,.95-.73,1.37-1.09,.42-.36,.83-.69,1.25-.98,.42-.29,.81-.46,1.17-.51l.7-.39c.88-1.04,1.95-1.96,3.2-2.77,1.25-.81,2.55-1.63,3.91-2.46,1.09-.62,2.2-1.29,3.32-1.99,1.12-.7,2.12-1.47,3.01-2.3,.42,.05,.78-.03,1.09-.23,.21-.26,.31-.6,.31-1.02,.1-.1,.22-.2,.35-.27,.13-.08,.25-.17,.35-.27,.36-.26,.86-.57,1.48-.94,.62-.36,1.04-.83,1.25-1.41l1.72-1.64-2.34,.08c-1.2,.05-2.46,.13-3.79,.23-1.33,.11-2.46,.21-3.4,.31-.78,.11-1.59,.17-2.42,.2-.83,.03-1.75,.07-2.73,.12-1.62-1.04-2.77-2.59-3.48-4.65-.7-2.06-.74-4.07-.12-6.05,.36-.05,.68-.14,.94-.27,.26-.13,.52-.25,.78-.35,.47-.05,.78-.05,.94,0,.16,.05,.36,.08,.62,.08,1.46-.26,2.67-.43,3.63-.51,.96-.08,1.86-.12,2.7-.12,.88,0,1.74,.04,2.58,.12,.83,.08,1.64,.25,2.42,.51,1.82,0,3.67-.08,5.55-.23s3.8-.03,5.78,.39c1.41-.47,2.8-.6,4.18-.39,1.38,.21,2.59,.83,3.63,1.88,.05,.89,.27,1.55,.66,1.99,.39,.44,.9,.77,1.52,.98,.42,1.51,.46,2.84,.12,3.98-.34,1.15-.9,2.16-1.68,3.05-.78,.89-1.71,1.68-2.77,2.38-1.07,.7-2.12,1.37-3.16,1.99-.31,.47-.69,.85-1.13,1.13-.44,.29-.85,.64-1.21,1.05-1.72,2.19-3.69,4.1-5.9,5.74-2.21,1.64-4.49,3.22-6.84,4.73-1.67,1.09-3.32,2.2-4.96,3.32-1.64,1.12-3.22,2.33-4.73,3.63l-.78,.7,.7,.78c.62,.62,1.35,.94,2.19,.94,.47,0,.92-.06,1.37-.2,.44-.13,.87-.27,1.29-.43,.42-.1,.78-.22,1.09-.35,.31-.13,.6-.2,.86-.2h1.02c.42-.26,.83-.47,1.25-.62,.42-.16,.83-.29,1.25-.39,.42-.1,.81-.21,1.17-.31,.36-.1,.75-.29,1.17-.55,1.14,0,2.23-.16,3.24-.47s2.04-.68,3.09-1.09c.62-.26,1.24-.49,1.84-.7,.6-.21,1.21-.36,1.84-.47,.21,.26,.46,.48,.74,.66,.29,.18,.56,.35,.82,.51,.68,.42,1.04,.81,1.09,1.17l.23,2.19,1.48-1.48c.62,.52,.96,1.11,1.02,1.76,.05,.65-.03,1.5-.23,2.54-1.67,1.67-3.75,2.97-6.25,3.91s-5.16,1.85-7.97,2.73c-.57,.16-1.16,.31-1.76,.47-.6,.16-1.19,.34-1.76,.55l.08-1.33-1.72,1.09c-.21,.16-.38,.31-.51,.47-.13,.16-.25,.31-.35,.47-1.36,.36-2.47,.62-3.36,.78-.89,.16-1.72,.31-2.5,.47-.89,.21-1.72,.38-2.5,.51-.78,.13-1.62,.2-2.5,.2h-.86c-.31,0-.62-.03-.94-.08Z"/>
  <path d="M348.3,14.38c.05,.37,.06,.64,.04,.82-.03,.18-.05,.35-.08,.51-.03,.16-.04,.33-.04,.51s.05,.46,.16,.82c-1.09,1.77-2.36,2.98-3.79,3.63-1.43,.65-2.98,1.12-4.65,1.41-1.67,.29-3.37,.59-5.12,.9-1.75,.31-3.48,.99-5.2,2.03-.68-.26-1.29-.26-1.84,0-.55,.26-1.34,.34-2.38,.23-.31,.31-.7,.54-1.17,.66-.47,.13-.94,.27-1.41,.43,.21,.47,.3,.95,.27,1.45-.03,.5,.04,.9,.2,1.21,1.82,.16,3.84,.13,6.05-.08,2.21-.21,4.39-.34,6.52-.39,.05,.26,.03,.43-.08,.51-.11,.08-.13,.22-.08,.43,.36,.26,.73,.59,1.09,.98,.36,.39,.73,.77,1.09,1.13,.36,.37,.74,.66,1.13,.9s.85,.33,1.37,.27c.21,.42,.35,.87,.43,1.37,.08,.5,.01,1-.2,1.52-.83,.57-1.67,1.16-2.5,1.76-.83,.6-1.71,1.13-2.62,1.6-.91,.47-1.88,.85-2.89,1.13-1.02,.29-2.15,.4-3.4,.35h-.59c-.13,0-.3-.08-.51-.23-.42,.26-1,.34-1.76,.23-.76-.1-1.34-.03-1.76,.23-.57-.26-1.26-.38-2.07-.35-.81,.03-1.52-.06-2.15-.27-.83,1.09-1.59,2.27-2.27,3.52-.68,1.25-1.28,2.58-1.8,3.98,1.77,.26,3.24,.37,4.41,.31,1.17-.05,2.28-.14,3.32-.27,1.04-.13,2.11-.26,3.2-.39,1.09-.13,2.47-.17,4.14-.12,1.04-.57,2.28-.95,3.71-1.13,1.43-.18,2.75-.48,3.95-.9,.42,.16,.78,.43,1.09,.82s.61,.76,.9,1.09c.29,.34,.59,.64,.9,.9,.31,.26,.7,.37,1.17,.31,.21,.21,.35,.46,.43,.74,.08,.29,.14,.56,.2,.82,.05,.26,.14,.48,.27,.66,.13,.18,.35,.25,.66,.2-.78,1.72-1.68,3.04-2.7,3.95-1.02,.91-2.18,1.6-3.48,2.07-1.3,.47-2.75,.83-4.34,1.09-1.59,.26-3.35,.57-5.27,.94-.47,.1-.86,.09-1.17-.04-.31-.13-.68-.2-1.09-.2-1.2,.26-2.63,.49-4.3,.7-1.67,.21-3.36,.29-5.08,.23-1.72-.05-3.36-.27-4.92-.66s-2.84-1.08-3.83-2.07c-.42-.36-.69-.79-.82-1.29-.13-.49-.48-.87-1.05-1.13-.05-.68-.16-1.43-.31-2.27-.16-.83-.31-1.71-.47-2.62-.16-.91-.27-1.81-.35-2.7-.08-.88-.04-1.69,.12-2.42,.16-.78,.48-1.48,.98-2.11,.49-.62,.66-1.3,.51-2.03,.26-.05,.42-.2,.47-.43,.05-.23,.26-.32,.62-.27,.31-.94,.65-1.82,1.02-2.66,.36-.83,.74-1.64,1.13-2.42s.78-1.57,1.17-2.38c.39-.81,.77-1.71,1.13-2.7-.73-.68-1.26-1.42-1.6-2.23-.34-.81-.59-1.61-.74-2.42-.16-.81-.29-1.64-.39-2.5-.11-.86-.29-1.73-.55-2.62,.52-.78,1.16-1.42,1.91-1.91,.75-.49,1.57-.9,2.46-1.21,.88-.31,1.85-.57,2.89-.78,1.04-.21,2.13-.44,3.28-.7,2.08-.68,3.95-1.2,5.59-1.56,1.64-.36,3.25-.66,4.84-.9,1.59-.23,3.24-.46,4.96-.66,1.72-.21,3.67-.52,5.86-.94,.47,.47,.91,.7,1.33,.7,.21-.47,.46-.61,.74-.43,.29,.18,.4,.04,.35-.43,.52,.89,1.18,1.63,1.99,2.23,.81,.6,1.71,1.11,2.7,1.52Z"/>
  <path d="M369.05,57.5c-1.46,.47-3.05,.94-4.77,1.41s-3.44,.7-5.16,.7c-2.61,0-4.66-.65-6.17-1.95-.26-.57-.5-.96-.7-1.17-.16-.21-.3-.43-.43-.66-.13-.23-.22-.56-.27-.98-.62-.73-1.12-1.57-1.48-2.54-.37-.96-.61-1.95-.74-2.97-.13-1.02-.16-2.04-.08-3.09,.08-1.04,.25-2.03,.51-2.97,.1-.21,.17-.42,.2-.62,.03-.21,.06-.44,.12-.7,.21-.83,.43-1.64,.66-2.42s.56-1.46,.98-2.03c-.21-.47-.21-.99,0-1.56,.21-.57,.44-1.09,.7-1.56,.73-1.98,1.34-3.66,1.84-5.04,.49-1.38,1-2.75,1.52-4.1,.88-2.34,1.72-4.66,2.5-6.95,.78-2.29,1.48-4.77,2.11-7.42,.42-.26,.73-.44,.94-.55,.31-.1,.57-.18,.78-.23,.94,.47,2.03,.93,3.28,1.37,1.25,.44,2.29,.66,3.12,.66,.42,.26,.68,.46,.78,.59,.1,.13,.21,.25,.31,.35,.57,.68,1.07,1.37,1.48,2.07,.42,.7,.55,1.63,.39,2.77-.31,.47-.55,.7-.7,.7-.26,1.04-.54,1.93-.82,2.66-.29,.73-.59,1.46-.9,2.19-.37,.78-.7,1.56-1.02,2.34s-.57,1.75-.78,2.89c-.21,.26-.35,.5-.43,.7-.08,.21-.17,.44-.27,.7-.11,.26-.22,.54-.35,.82-.13,.29-.33,.54-.59,.74-.16,1.36-.4,2.45-.74,3.28-.34,.83-.69,1.67-1.05,2.5-.62,1.51-1.19,3.02-1.68,4.53-.5,1.51-.79,3.23-.9,5.16,.26-.1,.51-.16,.74-.16h.66c.47,0,1.02,.08,1.64,.23,1.56-.83,3.27-1.33,5.12-1.48,1.85-.16,3.68-.26,5.51-.31h2.19c.73,0,1.41-.05,2.03-.16,.47,.26,.77,.4,.9,.43,.13,.03,.32,.04,.59,.04,.36,0,.68,.03,.94,.08,.62,.57,1.22,.99,1.8,1.25,.57,.26,1.17,.5,1.8,.7,.57,.21,1.13,.43,1.68,.66s1.08,.56,1.6,.98l.55,3.36c.36,.47,.52,.78,.47,.94,0,.42-.11,.73-.31,.94l.16,.86c-.78,.16-1.32,.34-1.6,.55-.29,.21-.56,.44-.82,.7-.42,.05-.72,.08-.9,.08h-.51c-.73,0-1.62,.13-2.66,.39-1.41-.47-2.87-.7-4.38-.7-.57,0-1.17,.03-1.8,.08-.62,.05-1.25,.11-1.88,.16-.62,.11-1.26,.18-1.91,.23-.65,.05-1.32,.08-1.99,.08l-1.8,.47Z"/>
  <path d="M436.67,14.38c.05,.37,.06,.64,.04,.82-.03,.18-.05,.35-.08,.51-.03,.16-.04,.33-.04,.51s.05,.46,.16,.82c-1.09,1.77-2.36,2.98-3.79,3.63-1.43,.65-2.98,1.12-4.65,1.41-1.67,.29-3.37,.59-5.12,.9-1.75,.31-3.48,.99-5.2,2.03-.68-.26-1.29-.26-1.84,0-.55,.26-1.34,.34-2.38,.23-.31,.31-.7,.54-1.17,.66-.47,.13-.94,.27-1.41,.43,.21,.47,.3,.95,.27,1.45-.03,.5,.04,.9,.2,1.21,1.82,.16,3.84,.13,6.05-.08,2.21-.21,4.39-.34,6.52-.39,.05,.26,.03,.43-.08,.51-.11,.08-.13,.22-.08,.43,.36,.26,.73,.59,1.09,.98,.36,.39,.73,.77,1.09,1.13,.36,.37,.74,.66,1.13,.9s.85,.33,1.37,.27c.21,.42,.35,.87,.43,1.37,.08,.5,.01,1-.2,1.52-.83,.57-1.67,1.16-2.5,1.76-.83,.6-1.71,1.13-2.62,1.6-.91,.47-1.88,.85-2.89,1.13-1.02,.29-2.15,.4-3.4,.35h-.59c-.13,0-.3-.08-.51-.23-.42,.26-1,.34-1.76,.23-.76-.1-1.34-.03-1.76,.23-.57-.26-1.26-.38-2.07-.35-.81,.03-1.52-.06-2.15-.27-.83,1.09-1.59,2.27-2.27,3.52-.68,1.25-1.28,2.58-1.8,3.98,1.77,.26,3.24,.37,4.41,.31,1.17-.05,2.28-.14,3.32-.27,1.04-.13,2.11-.26,3.2-.39,1.09-.13,2.47-.17,4.14-.12,1.04-.57,2.28-.95,3.71-1.13,1.43-.18,2.75-.48,3.95-.9,.42,.16,.78,.43,1.09,.82s.61,.76,.9,1.09c.29,.34,.59,.64,.9,.9,.31,.26,.7,.37,1.17,.31,.21,.21,.35,.46,.43,.74,.08,.29,.14,.56,.2,.82,.05,.26,.14,.48,.27,.66,.13,.18,.35,.25,.66,.2-.78,1.72-1.68,3.04-2.7,3.95-1.02,.91-2.18,1.6-3.48,2.07-1.3,.47-2.75,.83-4.34,1.09-1.59,.26-3.35,.57-5.27,.94-.47,.1-.86,.09-1.17-.04-.31-.13-.68-.2-1.09-.2-1.2,.26-2.63,.49-4.3,.7-1.67,.21-3.36,.29-5.08,.23-1.72-.05-3.36-.27-4.92-.66s-2.84-1.08-3.83-2.07c-.42-.36-.69-.79-.82-1.29-.13-.49-.48-.87-1.05-1.13-.05-.68-.16-1.43-.31-2.27-.16-.83-.31-1.71-.47-2.62-.16-.91-.27-1.81-.35-2.7-.08-.88-.04-1.69,.12-2.42,.16-.78,.48-1.48,.98-2.11,.49-.62,.66-1.3,.51-2.03,.26-.05,.42-.2,.47-.43,.05-.23,.26-.32,.62-.27,.31-.94,.65-1.82,1.02-2.66,.36-.83,.74-1.64,1.13-2.42s.78-1.57,1.17-2.38c.39-.81,.77-1.71,1.13-2.7-.73-.68-1.26-1.42-1.6-2.23-.34-.81-.59-1.61-.74-2.42-.16-.81-.29-1.64-.39-2.5-.11-.86-.29-1.73-.55-2.62,.52-.78,1.16-1.42,1.91-1.91,.75-.49,1.57-.9,2.46-1.21,.88-.31,1.85-.57,2.89-.78,1.04-.21,2.13-.44,3.28-.7,2.08-.68,3.95-1.2,5.59-1.56,1.64-.36,3.25-.66,4.84-.9,1.59-.23,3.24-.46,4.96-.66,1.72-.21,3.67-.52,5.86-.94,.47,.47,.91,.7,1.33,.7,.21-.47,.46-.61,.74-.43,.29,.18,.4,.04,.35-.43,.52,.89,1.18,1.63,1.99,2.23,.81,.6,1.71,1.11,2.7,1.52Z"/>
  <path d="M468.52,58.52c-.83,.05-1.86,.03-3.09-.08-1.22-.1-2.36,.08-3.4,.55-2.76-.11-5.57-.44-8.44-1.02-2.87-.57-5.5-1.28-7.89-2.11-.52-.57-1.04-1.11-1.56-1.6-.52-.49-1.22-.85-2.11-1.05-1.25-.99-2.27-2.2-3.05-3.63-.78-1.43-1.41-2.96-1.88-4.57-.47-1.61-.78-3.27-.94-4.96-.16-1.69-.21-3.32-.16-4.88,.78-2.34,1.89-4.36,3.32-6.05,1.43-1.69,2.9-3.37,4.41-5.04,.68-.31,1.18-.64,1.52-.98s.7-.65,1.09-.94c.39-.29,.78-.57,1.17-.86,.39-.29,.74-.64,1.05-1.05,1.09-.26,2.04-.64,2.85-1.13,.81-.49,1.6-1.02,2.38-1.56s1.59-1.05,2.42-1.52c.83-.47,1.8-.83,2.89-1.09,.42-.47,.91-.85,1.48-1.13,.57-.29,1.16-.57,1.76-.86,.6-.29,1.17-.59,1.72-.9s.98-.73,1.29-1.25c.26,.42,.62,.56,1.09,.43,.47-.13,.91-.27,1.33-.43,.26-.05,.48,0,.66,.16,.18,.16,.35,.31,.51,.47s.3,.25,.43,.27c.13,.03,.25-.09,.35-.35,.26,0,.34,.13,.23,.39-.11,.26-.18,.44-.23,.55,.42-.05,.77,.04,1.05,.27,.29,.23,.74,.38,1.37,.43,.21,.26,.26,.46,.16,.59-.11,.13-.16,.35-.16,.66,1.56,.47,2.55,1.21,2.97,2.23,.42,1.02,.44,2.07,.08,3.16-.37,1.09-1.02,2.11-1.95,3.05s-1.95,1.56-3.05,1.88c-2.5,.68-4.86,1.42-7.07,2.23-2.21,.81-4.02,1.99-5.43,3.55-1.25,.37-2.36,.85-3.32,1.45-.96,.6-1.88,1.28-2.73,2.03-.86,.76-1.67,1.54-2.42,2.34-.76,.81-1.55,1.6-2.38,2.38,.05,.73-.07,1.29-.35,1.68-.29,.39-.56,.79-.82,1.21,.1,.78,.29,1.47,.55,2.07,.26,.6,.55,1.19,.86,1.76,3.44,1.04,7.1,1.69,10.98,1.95,3.88,.26,7.77,.42,11.68,.47,.36,.52,.79,1,1.29,1.45,.49,.44,.95,.91,1.37,1.41,.42,.5,.75,1.04,1.02,1.64,.26,.6,.31,1.34,.16,2.23-.73,.78-1.54,1.5-2.42,2.15-.89,.65-1.77,1.32-2.66,1.99Z"/>
  <path d="M526.22,55.55c-2.5,.11-4.7,.05-6.6-.16-1.9-.21-3.76-.7-5.59-1.48-.11-.05-.21-.18-.31-.39-.11-.21-.21-.36-.31-.47-.31-.16-.69-.22-1.13-.2-.44,.03-.82-.01-1.13-.12-.42-.21-1.07-.61-1.95-1.21-.89-.6-1.69-1.16-2.42-1.68-.94-.73-1.82-1.46-2.66-2.19-.83-.73-1.56-1.51-2.19-2.34-.16-.21-.37-.32-.62-.35-.26-.03-.5-.09-.7-.2-1.51,.94-2.79,2.11-3.83,3.52-1.04,1.41-2.03,2.84-2.97,4.3-.94,1.46-1.93,2.84-2.97,4.14-1.04,1.3-2.37,2.29-3.98,2.97-.47,0-.89-.08-1.25-.23-.37-.16-.7-.35-1.02-.59s-.62-.46-.94-.66-.65-.36-1.02-.47c0-.62-.12-1.2-.35-1.72-.23-.52-.47-1.02-.7-1.48s-.4-.92-.51-1.37c-.11-.44,0-.87,.31-1.29-.31-.31-.78-.65-1.41-1.02,.31-.31,.46-.6,.43-.86-.03-.26-.09-.52-.2-.78-.11-.26-.2-.55-.27-.86s-.01-.62,.2-.94c.26,0,.57-.05,.94-.16-.31-.42-.46-.66-.43-.74,.03-.08-.04-.2-.2-.35-.11-.31-.05-.51,.16-.59,.21-.08,.42-.17,.62-.27,.21-2.55,.65-4.92,1.33-7.11,.68-2.19,1.43-4.3,2.27-6.33,.83-2.03,1.65-4.09,2.46-6.17,.81-2.08,1.47-4.32,1.99-6.72,.57-.57,1.03-1.25,1.37-2.03,.34-.78,.7-1.56,1.09-2.34s.83-1.55,1.33-2.3c.49-.75,1.18-1.37,2.07-1.84,.73,.05,1.38,.25,1.95,.59,.57,.34,1.28,.48,2.11,.43,.16,.26,.3,.52,.43,.78,.13,.26,.3,.52,.51,.78l1.17-.23c.57,.47,1.08,1.05,1.52,1.76,.44,.7,.74,1.45,.9,2.23s.13,1.52-.08,2.23c-.21,.7-.7,1.26-1.48,1.68,.05,.26,.06,.46,.04,.59-.03,.13-.07,.25-.12,.35-.05,.11-.08,.21-.08,.31s.08,.26,.23,.47c-1.04,.78-1.82,1.88-2.34,3.28-.52,1.41-.81,2.66-.86,3.75,.62-.62,1.31-1.24,2.07-1.84,.75-.6,1.54-1.18,2.34-1.76,.81-.57,1.59-1.12,2.34-1.64,.75-.52,1.45-1.04,2.07-1.56,1.72-1.56,3.37-2.82,4.96-3.79,1.59-.96,3.27-2.04,5.04-3.24,.42-.1,.74-.12,.98-.04s.48,.17,.74,.27c0-.31-.09-.49-.27-.55-.18-.05-.25-.26-.2-.62,.78-.21,1.46-.46,2.03-.74,.57-.29,1.2-.56,1.88-.82,.47,.47,.91,.95,1.33,1.45,.42,.5,.99,.79,1.72,.9,.26,.57,.57,1,.94,1.29,.36,.29,.73,.56,1.09,.82,.36,.26,.69,.57,.98,.94,.29,.37,.46,.94,.51,1.72-.21,.37-.43,.76-.66,1.17-.23,.42-.46,.91-.66,1.48-1.04,.94-2.1,1.77-3.16,2.5-1.07,.73-2.15,1.43-3.24,2.11-1.09,.68-2.21,1.36-3.36,2.03-1.15,.68-2.32,1.48-3.52,2.42-.26,.37-.59,.69-.98,.98-.39,.29-.79,.57-1.21,.86-.42,.29-.81,.59-1.17,.9-.37,.31-.65,.68-.86,1.09-.16,.05-.31,.08-.47,.08s-.31,.03-.47,.08c-.16,.37-.4,.65-.74,.86-.34,.21-.56,.5-.66,.86,.78,1.67,1.8,2.94,3.05,3.83,1.25,.89,2.66,1.52,4.22,1.91s3.25,.6,5.08,.62c1.82,.03,3.72,.04,5.7,.04,.21-.05,.3-.17,.27-.35-.03-.18,.09-.25,.35-.2,1.25,.42,2.21,1,2.89,1.76,.68,.76,1.48,1.5,2.42,2.23-.11,1.98-.7,3.62-1.8,4.92-1.09,1.3-2.55,2.34-4.38,3.12Z"/>
  <path d="M549.31,52.89c.26,1.56,.17,2.79-.27,3.67-.44,.89-1.07,1.55-1.88,1.99-.81,.44-1.73,.69-2.77,.74-1.04,.05-2.03,0-2.97-.16-.52-.73-.99-1.64-1.41-2.73-.42-1.09-.81-2.23-1.17-3.4-.37-1.17-.69-2.33-.98-3.48-.29-1.14-.54-2.16-.74-3.05,.26-.62,.43-1.34,.51-2.15,.08-.81,.13-1.63,.16-2.46,.03-.83,.05-1.68,.08-2.54,.03-.86,.09-1.68,.2-2.46,.36-2.19,.9-4.27,1.6-6.25,.7-1.98,1.26-4.04,1.68-6.17,.1-.47,.06-.91-.12-1.33-.18-.42-.22-.81-.12-1.17,.05-.21,.21-.35,.47-.43,.26-.08,.42-.25,.47-.51,.16-.57,.2-1.04,.12-1.41-.08-.36,.01-.81,.27-1.33,.26-.42,.59-1.03,.98-1.84,.39-.81,.53-1.65,.43-2.54,.47-.31,.91-.68,1.33-1.09s.85-.79,1.29-1.13c.44-.34,.94-.64,1.48-.9,.55-.26,1.21-.39,1.99-.39,.42,.52,.69,1.09,.82,1.72,.13,.62,.26,1.25,.39,1.88,.13,.62,.32,1.21,.59,1.76,.26,.55,.7,.98,1.33,1.29v1.56c0,.62,.03,1.24,.08,1.84,.05,.6,.17,1.15,.35,1.64,.18,.5,.48,.82,.9,.98-.94,2.5-1.81,4.97-2.62,7.42-.81,2.45-1.47,4.91-1.99,7.38-.52,2.47-.85,4.96-.98,7.46-.13,2.5,.04,5.03,.51,7.58Z"/>
</svg>