<?xml version="1.0" encoding="UTF-8"?>
<svg id="Layer_1" data-name="Layer 1" xmlns="http://www.w3.org/2000/svg" viewBox="0 0 105.52 60">
  <path d="M1.72,14.3c-.05-.42-.14-.79-.27-1.13-.13-.34-.27-.72-.43-1.13-.26-.62-.5-1.3-.7-2.03-.21-.73-.31-1.59-.31-2.58,.1-.52,.23-.9,.39-1.13s.31-.43,.47-.59l.31-1.41h1.17c.42,.05,.85,.08,1.29,.08h1.29c1.98,0,4.01-.08,6.09-.23,2.08-.16,4.22-.34,6.41-.55,2.4-.31,4.97-.55,7.73-.7,.26-.57,.43-.94,.51-1.09s.17-.34,.27-.55l.86-.47c1.2-.05,2.03,.09,2.5,.43,.47,.34,.83,.66,1.09,.98,1.35-.1,2.73-.25,4.14-.43,1.41-.18,2.86-.38,4.38-.59,2.08-.26,4.19-.52,6.33-.78C47.37,.13,49.45,0,51.48,0c.88,0,1.72,.03,2.5,.08,.78,.05,1.54,.13,2.27,.23l.94,.7c.21,.37,.47,.7,.78,1.02s.68,.62,1.09,.94c.78,.62,1.55,1.41,2.3,2.34,.75,.94,1.03,2.32,.82,4.14l-.39,.78c-.21,.21-.47,.42-.78,.62l-.78,1.02h-.86c-.52,0-.91,.04-1.17,.12-.26,.08-.57,.2-.94,.35-.21,.1-.44,.2-.7,.27-.26,.08-.55,.17-.86,.27-.57-.05-1.02-.08-1.33-.08h-1.09c-1.56,0-3.26,.1-5.08,.31-1.82,.21-3.59,.44-5.31,.7-1.25,.16-2.45,.3-3.59,.43-1.15,.13-2.19,.25-3.12,.35-.52,1.35-.99,2.55-1.41,3.59-.42,1.04-.86,2.08-1.33,3.12-.47,1.04-.91,2.1-1.33,3.16-.42,1.07-.81,2.25-1.17,3.55-.62,.94-1.15,1.84-1.56,2.7-.42,.86-.76,1.84-1.02,2.93-.78,.89-1.34,1.85-1.68,2.89-.34,1.04-.64,1.93-.9,2.66l-.31,1.17c-.37,.37-.59,.65-.66,.86-.08,.21-.22,.44-.43,.7-.16,.68-.37,1.33-.62,1.95-.1,.26-.21,.53-.31,.82-.1,.29-.13,.51-.08,.66-.1,.57-.26,1.02-.47,1.33,0,.31-.03,.62-.08,.94-.05,.31-.1,.62-.16,.94-.1,.37-.18,.69-.23,.98-.05,.29-.03,.56,.08,.82,.16,.21,.31,.42,.47,.62,.16,.21,.29,.47,.39,.78,.1,.1,.23,.18,.39,.23,.16,.05,.29,.13,.39,.23,.42,.37,.81,.57,1.17,.62l.78,.94c.31,1.88,.03,3.33-.86,4.38-.94,1.2-2.5,1.8-4.69,1.8l-1.09-.08c-.37-.37-.57-.6-.62-.7-.47-.21-.86-.38-1.17-.51-.31-.13-.6-.38-.86-.74-.1-.1-.23-.17-.39-.2-.16-.03-.29-.09-.39-.2-.52-.16-.94-.34-1.25-.55l-.86-.47c.05-.52,.08-.88,.08-1.09-.42-.57-.74-1.2-.98-1.88-.23-.68-.43-1.38-.59-2.11-.16-.57-.3-1.09-.43-1.56-.13-.47-.33-.88-.59-1.25-.1-3.65,.23-6.71,1.02-9.18,.78-2.47,1.64-4.88,2.58-7.23,.52-1.25,1.02-2.53,1.48-3.83,.47-1.3,.88-2.63,1.25-3.98l.86-.86c.36-.31,.6-.49,.7-.55,0-.68,.13-1.34,.39-1.99,.26-.65,.55-1.31,.86-1.99,.21-.42,.4-.83,.59-1.25,.18-.42,.3-.78,.35-1.09-.37,0-.69,.01-.98,.04-.29,.03-.59,.07-.9,.12-.68,.16-1.33,.23-1.95,.23-.47,0-.81-.03-1.02-.08-.42,.21-.81,.33-1.17,.35-.37,.03-.73,.04-1.09,.04h-1.88c-.62,0-1.12,.08-1.48,.23h-3.98c-.42,0-.89-.04-1.41-.12-.52-.08-1.07-.27-1.64-.59l-.55-.62c-.31-.57-.6-.88-.86-.94l-.86-.23v-.86Z"/>
  <path d="M51.61,23.13c.16-.78,.26-1.42,.31-1.91,.05-.49-.13-1.03-.55-1.6,.21-.83,.38-1.48,.51-1.95,.13-.47,.14-1.12,.04-1.95,.47-1.35,1.18-2.5,2.15-3.44,.96-.94,2.02-1.73,3.16-2.38,1.15-.65,2.34-1.2,3.59-1.64,1.25-.44,2.42-.82,3.52-1.13,0-.21-.1-.31-.31-.31s-.26-.13-.16-.39c2.81-.52,5.64-1.28,8.48-2.27,2.84-.99,5.74-1.88,8.71-2.66S87.08,.23,90.2,.04c3.12-.18,6.41,.22,9.84,1.21,.21,.62,.49,1.22,.86,1.8,.36,.57,.74,1.13,1.13,1.68s.74,1.08,1.05,1.6c.31,.52,.49,1.07,.55,1.64,.62,.57,1.13,1.19,1.52,1.84,.39,.65,.46,1.52,.2,2.62-.57,.42-1.17,.83-1.8,1.25-.62,.42-1.28,.81-1.95,1.17-2.34-.57-4.69-.78-7.03-.62s-4.45,.34-6.33,.55c-.57-.62-1.25-.92-2.03-.9-.78,.03-1.6,.16-2.46,.39s-1.71,.47-2.54,.7c-.83,.23-1.62,.3-2.34,.2-.57,.52-1.33,.87-2.27,1.05-.94,.18-1.93,.33-2.97,.43-.05,.26,0,.44,.16,.55,.16,.1,.18,.31,.08,.62,.36,.47,.86,.79,1.48,.98,.62,.18,1.26,.35,1.91,.51,.65,.16,1.24,.38,1.76,.66,.52,.29,.86,.74,1.02,1.37,.94,.05,1.74,.3,2.42,.74,.68,.44,1.25,.98,1.72,1.6s.81,1.29,1.02,1.99c.21,.7,.29,1.34,.23,1.91,.21,.52,.43,.73,.66,.62,.23-.1,.51,.03,.82,.39,.21,.78,.69,1.6,1.45,2.46,.75,.86,1.34,1.78,1.76,2.77,.1,1.56,.2,2.97,.27,4.22s-.14,2.47-.66,3.67c-.89,2.29-2.16,4.35-3.83,6.17-1.67,1.82-3.55,3.43-5.66,4.8-2.11,1.38-4.34,2.58-6.68,3.59s-4.66,1.86-6.95,2.54c-.21-.05-.46-.05-.74,0-.29,.05-.35-.1-.2-.47-.47,.42-1,.68-1.6,.78-.6,.1-1.25,.14-1.95,.12-.7-.03-1.41-.07-2.11-.12-.7-.05-1.39-.03-2.07,.08-.42-.42-.79-.83-1.13-1.25-.34-.42-.61-.91-.82-1.48-.26-.05-.38-.22-.35-.51,.03-.29-.09-.43-.35-.43,0-.21,.03-.36,.08-.47,.05-.1,.1-.21,.16-.31,.21-.16,.3-.27,.27-.35-.03-.08-.1-.16-.23-.23-.13-.08-.26-.17-.39-.27-.13-.1-.17-.23-.12-.39,.26-.47,.35-1.03,.27-1.68-.08-.65-.14-1.31-.2-1.99-.05-.68,0-1.31,.16-1.91,.16-.6,.6-1.11,1.33-1.52,2.13,.21,4.15,.1,6.05-.31,1.9-.42,3.7-.99,5.39-1.72,1.69-.73,3.31-1.52,4.84-2.38,1.54-.86,3.03-1.65,4.49-2.38,.16-.52,.4-.96,.74-1.33,.34-.36,.69-.72,1.05-1.05,.36-.34,.7-.7,1.02-1.09s.55-.87,.7-1.45c.05-.21,.05-.36,0-.47-.05-.1-.13-.2-.23-.27-.11-.08-.21-.17-.31-.27-.11-.1-.16-.26-.16-.47-.16-.05-.3-.1-.43-.16-.13-.05-.25-.08-.35-.08-1.36-.68-2.79-1.25-4.3-1.72-1.51-.47-2.79-.99-3.83-1.56-.62,.42-1.25,.52-1.88,.31-.62-.21-1.38-.42-2.27-.62-2.19-.1-4.26-.31-6.21-.62s-3.84-.86-5.66-1.64c-.1-.31-.23-.59-.39-.82s-.52-.3-1.09-.2c-.37-.52-.74-1-1.13-1.45-.39-.44-.74-.95-1.05-1.52Z"/>
</svg>